<svg width="100" height="27" viewBox="0 0 100 27" fill="none" xmlns="http://www.w3.org/2000/svg">
<g clip-path="url(#clip0_570_81)">
<path d="M0 13.01C0 6.87702 0 3.81054 1.90603 1.90527C3.81206 0 6.87976 0 13.0152 0C19.1506 0 22.2183 0 24.1244 1.90527C26.0304 3.81054 26.0304 6.87702 26.0304 13.01C26.0304 19.143 26.0304 22.2094 24.1244 24.1148C22.2183 26.02 19.1506 26.02 13.0152 26.02C6.87976 26.02 3.81206 26.02 1.90603 24.1148C0 22.2094 0 19.143 0 13.01Z" fill="#243A5A"/>
<path d="M15.6182 16.913C15.9776 16.913 16.2756 17.2071 16.2042 17.5592C16.078 18.181 15.7715 18.7575 15.316 19.2128C14.7058 19.8228 13.8782 20.1655 13.0152 20.1655C12.1522 20.1655 11.3247 19.8228 10.7144 19.2128C10.2589 18.7575 9.95239 18.181 9.82628 17.5592C9.75482 17.2071 10.0527 16.913 10.4122 16.913H15.6182Z" fill="white"/>
<path d="M16.9863 11.5637C16.6391 11.6566 16.4265 12.0197 16.6026 12.3329C16.7878 12.6625 17.0441 12.9503 17.3559 13.1736C17.8454 13.5242 18.4414 13.6944 19.0423 13.6549C19.6432 13.6156 20.2119 13.3692 20.6515 12.9577C21.091 12.5462 21.3742 11.995 21.4528 11.3982C21.5314 10.8013 21.4006 10.1957 21.0826 9.68449C20.7646 9.17333 20.279 8.78817 19.7088 8.59464C19.1385 8.40112 18.5188 8.41127 17.9552 8.62333C17.5962 8.75837 17.2742 8.96998 17.0099 9.24046C16.7587 9.49747 16.8701 9.90319 17.1814 10.0828L17.5115 10.2733C18.0135 10.5631 17.9146 11.315 17.3545 11.465L16.9863 11.5637Z" fill="white"/>
<path d="M9.04413 11.5637C9.39131 11.6566 9.60391 12.0197 9.42788 12.3329C9.24261 12.6625 8.98634 12.9503 8.67462 13.1736C8.18512 13.5242 7.58909 13.6944 6.98818 13.6549C6.38722 13.6156 5.81853 13.3692 5.37898 12.9577C4.93944 12.5462 4.65624 11.995 4.57763 11.3982C4.49903 10.8013 4.62988 10.1957 4.9479 9.68449C5.26591 9.17333 5.75141 8.78817 6.32168 8.59464C6.89193 8.40112 7.51172 8.41127 8.07534 8.62333C8.43423 8.75837 8.7563 8.96998 9.02063 9.24046C9.27176 9.49747 9.16035 9.90319 8.84909 10.0828L8.51896 10.2733C8.0169 10.5631 8.11595 11.315 8.67593 11.465L9.04413 11.5637Z" fill="white"/>
<path d="M31.8807 14.9449C31.4593 14.9449 31.1365 14.8374 30.9124 14.6222C30.6972 14.398 30.5896 14.0797 30.5896 13.6673V6.74104C30.5896 6.3286 30.6972 6.01479 30.9124 5.79961C31.1365 5.57546 31.4593 5.46338 31.8807 5.46338H34.5167C36.1665 5.46338 37.4397 5.87582 38.3363 6.70069C39.2418 7.52557 39.6946 8.69115 39.6946 10.1974C39.6946 10.9506 39.5781 11.623 39.3449 12.2148C39.1118 12.7976 38.7756 13.2952 38.3363 13.7076C37.8969 14.1111 37.3545 14.4204 36.7089 14.6356C36.0723 14.8418 35.3416 14.9449 34.5167 14.9449H31.8807ZM33.0642 12.941H34.3553C34.8305 12.941 35.2385 12.8828 35.5792 12.7662C35.9289 12.6496 36.2158 12.4793 36.4399 12.2551C36.6731 12.031 36.8434 11.7486 36.951 11.4079C37.0676 11.0671 37.1258 10.6637 37.1258 10.1974C37.1258 9.26497 36.8972 8.57907 36.4399 8.13974C35.9827 7.69144 35.2878 7.46729 34.3553 7.46729H33.0642V12.941ZM43.3007 15.0929C42.7897 15.0929 42.3369 14.9987 41.9424 14.8105C41.5568 14.6222 41.252 14.3666 41.0278 14.0439C40.8127 13.7121 40.7051 13.3355 40.7051 12.9141C40.7051 12.43 40.8306 12.0489 41.0816 11.771C41.3327 11.493 41.7362 11.2958 42.2921 11.1792C42.848 11.0537 43.5876 10.9909 44.5111 10.9909H45.2508V12.1207H44.5111C44.1615 12.1207 43.8701 12.1475 43.637 12.2013C43.4128 12.2462 43.2469 12.3224 43.1393 12.43C43.0318 12.5286 42.978 12.6586 42.978 12.82C42.978 13.0262 43.0497 13.1966 43.1931 13.3311C43.3456 13.4656 43.5607 13.5328 43.8387 13.5328C44.0628 13.5328 44.2601 13.4835 44.4305 13.3849C44.6098 13.2862 44.7532 13.1517 44.8608 12.9814C44.9684 12.8021 45.0222 12.5958 45.0222 12.3627V10.8026C45.0222 10.4799 44.937 10.2512 44.7667 10.1167C44.6053 9.98226 44.3229 9.91501 43.9194 9.91501C43.7042 9.91501 43.4621 9.94191 43.1931 9.9957C42.9242 10.0405 42.6238 10.1257 42.2921 10.2512C42.05 10.3409 41.8438 10.3543 41.6734 10.2916C41.503 10.2288 41.3686 10.1212 41.2699 9.96881C41.1803 9.81638 41.1354 9.65051 41.1354 9.47119C41.1444 9.29187 41.2027 9.12152 41.3103 8.96013C41.4268 8.79874 41.6017 8.67322 41.8348 8.58356C42.2652 8.42217 42.6597 8.31458 43.0183 8.26078C43.3859 8.20698 43.7221 8.18009 44.027 8.18009C44.7622 8.18009 45.3674 8.28768 45.8426 8.50286C46.3268 8.70908 46.6854 9.03186 46.9185 9.47119C47.1606 9.90156 47.2816 10.4575 47.2816 11.1389V13.8556C47.2816 14.2501 47.1875 14.5504 46.9992 14.7567C46.8109 14.9629 46.5375 15.066 46.1788 15.066C45.8112 15.066 45.5288 14.9629 45.3315 14.7567C45.1433 14.5504 45.0491 14.2501 45.0491 13.8556V13.5059L45.1298 13.6942C45.085 13.9811 44.9819 14.2277 44.8205 14.4339C44.6591 14.6401 44.4484 14.8015 44.1884 14.918C43.9284 15.0346 43.6325 15.0929 43.3007 15.0929ZM49.8687 15.066C49.4742 15.066 49.1693 14.9629 48.9542 14.7567C48.7479 14.5504 48.6448 14.2501 48.6448 13.8556V9.40395C48.6448 9.01841 48.7435 8.72253 48.9407 8.51631C49.1469 8.31009 49.4383 8.20698 49.8149 8.20698C50.1915 8.20698 50.4784 8.31009 50.6756 8.51631C50.8729 8.72253 50.9715 9.01841 50.9715 9.40395V9.95536H50.837C50.9267 9.4174 51.1553 8.99151 51.5229 8.6777C51.8995 8.36389 52.3657 8.19802 52.9216 8.18009C53.1816 8.17112 53.3744 8.23837 53.4999 8.38182C53.6344 8.51631 53.7061 8.77184 53.7151 9.14842C53.7151 9.47119 53.6479 9.72672 53.5134 9.91501C53.3789 10.1033 53.1234 10.2154 52.7468 10.2512L52.4375 10.2781C51.9623 10.323 51.6171 10.4575 51.4019 10.6816C51.1867 10.8968 51.0791 11.2196 51.0791 11.6499V13.8556C51.0791 14.2501 50.976 14.5504 50.7698 14.7567C50.5636 14.9629 50.2632 15.066 49.8687 15.066ZM55.6598 15.066C55.2832 15.066 54.9918 14.9539 54.7856 14.7298C54.5794 14.5056 54.4762 14.1828 54.4762 13.7614V9.51154C54.4762 9.09014 54.5794 8.76736 54.7856 8.54321C54.9918 8.31906 55.2832 8.20698 55.6598 8.20698C56.0453 8.20698 56.3412 8.31906 56.5474 8.54321C56.7626 8.76736 56.8702 9.09014 56.8702 9.51154V13.7614C56.8702 14.1828 56.7671 14.5056 56.5608 14.7298C56.3546 14.9539 56.0543 15.066 55.6598 15.066ZM55.6598 7.2521C55.2384 7.2521 54.9111 7.15348 54.678 6.95623C54.4538 6.75897 54.3418 6.47206 54.3418 6.09549C54.3418 5.72788 54.4538 5.44545 54.678 5.2482C54.9111 5.05095 55.2384 4.95232 55.6598 4.95232C56.0991 4.95232 56.4308 5.05095 56.655 5.2482C56.8791 5.44545 56.9912 5.72788 56.9912 6.09549C56.9912 6.47206 56.8791 6.75897 56.655 6.95623C56.4308 7.15348 56.0991 7.2521 55.6598 7.2521ZM61.8631 15.0929C61.0562 15.0929 60.3568 14.9539 59.7651 14.676C59.1823 14.3891 58.734 13.9856 58.4202 13.4656C58.1064 12.9455 57.9495 12.3314 57.9495 11.623C57.9495 10.9416 58.0974 10.3454 58.3933 9.83432C58.6981 9.31429 59.1106 8.91082 59.6306 8.6239C60.1596 8.32803 60.7603 8.18009 61.4328 8.18009C61.9259 8.18009 62.3742 8.26078 62.7777 8.42217C63.1811 8.57459 63.5263 8.80322 63.8132 9.10807C64.1001 9.40395 64.3153 9.76259 64.4588 10.184C64.6112 10.6054 64.6874 11.0761 64.6874 11.5961C64.6874 11.7755 64.6381 11.9099 64.5395 11.9996C64.4408 12.0803 64.2839 12.1207 64.0688 12.1207H59.9534V10.9909H62.939L62.7239 11.1658C62.7239 10.834 62.679 10.565 62.5894 10.3588C62.4997 10.1526 62.3652 9.99571 62.1859 9.88811C62.0155 9.78052 61.8004 9.72672 61.5403 9.72672C61.2624 9.72672 61.0203 9.79397 60.8141 9.92846C60.6168 10.054 60.4644 10.2423 60.3568 10.4933C60.2492 10.7444 60.1954 11.0582 60.1954 11.4348V11.5558C60.1954 12.1924 60.3344 12.6496 60.6124 12.9276C60.8993 13.1966 61.3386 13.3311 61.9304 13.3311C62.1276 13.3311 62.3518 13.3086 62.6028 13.2638C62.8628 13.21 63.1094 13.1383 63.3425 13.0486C63.5756 12.959 63.7774 12.9455 63.9477 13.0083C64.1181 13.0621 64.2481 13.1607 64.3377 13.3042C64.4364 13.4387 64.4902 13.5956 64.4991 13.7749C64.5081 13.9452 64.4677 14.1156 64.3781 14.2859C64.2884 14.4473 64.1405 14.5729 63.9343 14.6625C63.6205 14.806 63.2842 14.9136 62.9256 14.9853C62.5759 15.057 62.2218 15.0929 61.8631 15.0929ZM68.2338 15.0929C67.373 15.0929 66.7364 14.8643 66.324 14.407C65.9205 13.9408 65.7188 13.2414 65.7188 12.3089V6.55276C65.7188 6.15825 65.8219 5.85789 66.0281 5.65167C66.2343 5.44545 66.5257 5.34234 66.9023 5.34234C67.2878 5.34234 67.5837 5.44545 67.7899 5.65167C68.0051 5.85789 68.1127 6.15825 68.1127 6.55276V12.2282C68.1127 12.56 68.1755 12.8021 68.301 12.9545C68.4355 13.1069 68.6058 13.1831 68.8121 13.1831C68.8748 13.1831 68.9376 13.1786 69.0003 13.1697C69.0721 13.1517 69.1483 13.1383 69.229 13.1293C69.3814 13.1293 69.4935 13.1876 69.5652 13.3042C69.6459 13.4207 69.6862 13.6583 69.6862 14.017C69.6862 14.3308 69.6235 14.5684 69.498 14.7298C69.3724 14.8822 69.1797 14.9808 68.9197 15.0256C68.8479 15.0346 68.7448 15.0481 68.6103 15.066C68.4758 15.0839 68.3503 15.0929 68.2338 15.0929Z" fill="#243A5A"/>
<path d="M31.1868 22.1235C30.9823 22.1235 30.8102 22.0876 30.6703 22.0159C30.534 21.9406 30.4318 21.833 30.3637 21.6931C30.2955 21.5497 30.2615 21.3757 30.2615 21.1713V19.7995H29.901C29.8401 19.7995 29.7934 19.7852 29.7612 19.7565C29.7289 19.7242 29.7127 19.6811 29.7127 19.6274C29.7127 19.5736 29.7289 19.5323 29.7612 19.5036C29.7934 19.4749 29.8401 19.4606 29.901 19.4606H30.2615V18.8419C30.2615 18.7702 30.2812 18.7164 30.3206 18.6805C30.3601 18.6411 30.4139 18.6214 30.482 18.6214C30.5502 18.6214 30.6022 18.6411 30.638 18.6805C30.6775 18.7164 30.6972 18.7702 30.6972 18.8419V19.4606H31.375C31.436 19.4606 31.4826 19.4749 31.5149 19.5036C31.5472 19.5323 31.5633 19.5736 31.5633 19.6274C31.5633 19.6811 31.5472 19.7242 31.5149 19.7565C31.4826 19.7852 31.436 19.7995 31.375 19.7995H30.6972V21.1283C30.6972 21.3327 30.7402 21.4887 30.8263 21.5963C30.9124 21.7003 31.0523 21.7523 31.2459 21.7523C31.3141 21.7523 31.3715 21.7451 31.4181 21.7308C31.4683 21.7164 31.5095 21.7093 31.5418 21.7093C31.5741 21.7057 31.601 21.7164 31.6225 21.7415C31.644 21.7666 31.6548 21.8097 31.6548 21.8706C31.6548 21.9137 31.6458 21.9531 31.6279 21.989C31.6135 22.0249 31.5866 22.05 31.5472 22.0643C31.5042 22.0787 31.4468 22.0912 31.375 22.102C31.3069 22.1163 31.2441 22.1235 31.1868 22.1235ZM32.2652 22.1127C32.1935 22.1127 32.1397 22.093 32.1038 22.0536C32.0679 22.0141 32.05 21.9585 32.05 21.8868V18.4654C32.05 18.3936 32.0679 18.3398 32.1038 18.304C32.1397 18.2645 32.1935 18.2448 32.2652 18.2448C32.3333 18.2448 32.3871 18.2645 32.4266 18.304C32.466 18.3398 32.4858 18.3936 32.4858 18.4654V20.0416H32.4158C32.4911 19.8336 32.6131 19.6776 32.7816 19.5736C32.9538 19.466 33.151 19.4122 33.3734 19.4122C33.5814 19.4122 33.7536 19.4498 33.8898 19.5251C34.0297 19.6005 34.1337 19.7152 34.2019 19.8694C34.27 20.0201 34.3041 20.2119 34.3041 20.4451V21.8868C34.3041 21.9585 34.2843 22.0141 34.2449 22.0536C34.209 22.093 34.157 22.1127 34.0889 22.1127C34.0172 22.1127 33.9616 22.093 33.9221 22.0536C33.8863 22.0141 33.8683 21.9585 33.8683 21.8868V20.4719C33.8683 20.2281 33.8199 20.0505 33.7231 19.9394C33.6298 19.8246 33.4792 19.7672 33.2712 19.7672C33.0309 19.7672 32.839 19.8425 32.6956 19.9932C32.5557 20.1402 32.4858 20.3375 32.4858 20.5849V21.8868C32.4858 22.0374 32.4122 22.1127 32.2652 22.1127ZM36.2857 22.1235C36.0095 22.1235 35.7711 22.0697 35.5702 21.9621C35.373 21.8509 35.2187 21.6949 35.1076 21.4941C35 21.2932 34.9462 21.0529 34.9462 20.7732C34.9462 20.5006 35 20.2639 35.1076 20.0631C35.2152 19.8587 35.3622 19.6991 35.5487 19.5843C35.7388 19.4695 35.9575 19.4122 36.205 19.4122C36.3807 19.4122 36.5385 19.4427 36.6784 19.5036C36.8183 19.561 36.9366 19.6453 37.0335 19.7565C37.1339 19.8676 37.2092 20.0021 37.2594 20.1599C37.3132 20.3177 37.3401 20.4953 37.3401 20.6925C37.3401 20.7499 37.324 20.7929 37.2917 20.8216C37.2594 20.8467 37.2128 20.8593 37.1518 20.8593H35.2797V20.5742H37.0496L36.9635 20.6441C36.9635 20.4504 36.9348 20.2872 36.8775 20.1546C36.8201 20.0183 36.7358 19.9143 36.6246 19.8425C36.517 19.7708 36.3807 19.7349 36.2158 19.7349C36.0329 19.7349 35.8769 19.778 35.7477 19.8641C35.6222 19.9465 35.5272 20.0631 35.4626 20.2137C35.3981 20.3608 35.3658 20.5329 35.3658 20.7302V20.7624C35.3658 21.0924 35.4447 21.3434 35.6025 21.5156C35.7639 21.6877 35.9916 21.7738 36.2857 21.7738C36.4076 21.7738 36.5278 21.7577 36.6461 21.7254C36.7681 21.6931 36.8864 21.6393 37.0012 21.564C37.0514 21.5317 37.0962 21.5174 37.1357 21.521C37.1787 21.521 37.2128 21.5335 37.2379 21.5586C37.263 21.5801 37.2791 21.6088 37.2863 21.6447C37.2971 21.677 37.2935 21.7128 37.2755 21.7523C37.2612 21.7917 37.2307 21.8258 37.1841 21.8545C37.0657 21.9406 36.9259 22.0069 36.7645 22.0536C36.6031 22.1002 36.4435 22.1235 36.2857 22.1235ZM40.3529 22.1235C40.1198 22.1235 39.9154 22.0679 39.7396 21.9567C39.5675 21.8455 39.433 21.6895 39.3362 21.4887C39.2429 21.2843 39.1963 21.044 39.1963 20.7678C39.1963 20.4881 39.2429 20.2478 39.3362 20.047C39.433 19.8425 39.5675 19.6865 39.7396 19.5789C39.9154 19.4678 40.1198 19.4122 40.3529 19.4122C40.5896 19.4122 40.7922 19.4713 40.9608 19.5897C41.1294 19.708 41.2423 19.8676 41.2997 20.0685H41.2405V18.4654C41.2405 18.3936 41.2585 18.3398 41.2943 18.304C41.3338 18.2645 41.3894 18.2448 41.4611 18.2448C41.5292 18.2448 41.5812 18.2645 41.6171 18.304C41.6566 18.3398 41.6763 18.3936 41.6763 18.4654V21.8868C41.6763 21.9585 41.6583 22.0141 41.6225 22.0536C41.5866 22.093 41.5328 22.1127 41.4611 22.1127C41.393 22.1127 41.3392 22.093 41.2997 22.0536C41.2638 22.0141 41.2459 21.9585 41.2459 21.8868V21.3757L41.3051 21.451C41.2477 21.6555 41.1329 21.8186 40.9608 21.9406C40.7922 22.0625 40.5896 22.1235 40.3529 22.1235ZM40.4443 21.7738C40.6057 21.7738 40.7474 21.7344 40.8693 21.6555C40.9913 21.5766 41.0845 21.4618 41.1491 21.3112C41.2172 21.1605 41.2513 20.9794 41.2513 20.7678C41.2513 20.4415 41.1778 20.1922 41.0307 20.0201C40.8873 19.8479 40.6918 19.7618 40.4443 19.7618C40.2794 19.7618 40.1359 19.8013 40.014 19.8802C39.8956 19.9555 39.8024 20.0685 39.7342 20.2191C39.6697 20.3662 39.6374 20.5491 39.6374 20.7678C39.6374 21.0906 39.7109 21.3399 39.858 21.5156C40.005 21.6877 40.2005 21.7738 40.4443 21.7738ZM43.6722 22.1235C43.396 22.1235 43.1575 22.0697 42.9567 21.9621C42.7594 21.8509 42.6052 21.6949 42.494 21.4941C42.3864 21.2932 42.3326 21.0529 42.3326 20.7732C42.3326 20.5006 42.3864 20.2639 42.494 20.0631C42.6016 19.8587 42.7487 19.6991 42.9352 19.5843C43.1252 19.4695 43.344 19.4122 43.5915 19.4122C43.7672 19.4122 43.925 19.4427 44.0649 19.5036C44.2047 19.561 44.3231 19.6453 44.4199 19.7565C44.5203 19.8676 44.5957 20.0021 44.6459 20.1599C44.6997 20.3177 44.7266 20.4953 44.7266 20.6925C44.7266 20.7499 44.7104 20.7929 44.6781 20.8216C44.6459 20.8467 44.5992 20.8593 44.5383 20.8593H42.6662V20.5742H44.4361L44.35 20.6441C44.35 20.4504 44.3213 20.2872 44.2639 20.1546C44.2065 20.0183 44.1223 19.9143 44.0111 19.8425C43.9035 19.7708 43.7672 19.7349 43.6022 19.7349C43.4193 19.7349 43.2633 19.778 43.1342 19.8641C43.0087 19.9465 42.9136 20.0631 42.8491 20.2137C42.7845 20.3608 42.7522 20.5329 42.7522 20.7302V20.7624C42.7522 21.0924 42.8311 21.3434 42.9889 21.5156C43.1503 21.6877 43.3781 21.7738 43.6722 21.7738C43.7941 21.7738 43.9142 21.7577 44.0326 21.7254C44.1545 21.6931 44.2729 21.6393 44.3876 21.564C44.4379 21.5317 44.4827 21.5174 44.5221 21.521C44.5652 21.521 44.5992 21.5335 44.6243 21.5586C44.6495 21.5801 44.6656 21.6088 44.6728 21.6447C44.6835 21.677 44.6799 21.7128 44.662 21.7523C44.6477 21.7917 44.6172 21.8258 44.5706 21.8545C44.4522 21.9406 44.3123 22.0069 44.1509 22.0536C43.9896 22.1002 43.83 22.1235 43.6722 22.1235ZM46.2994 22.1127C46.2384 22.1127 46.1846 22.0966 46.138 22.0643C46.0914 22.0284 46.0519 21.9747 46.0196 21.9029L45.089 19.7296C45.0639 19.6758 45.0549 19.6256 45.0621 19.5789C45.0692 19.5323 45.0908 19.4947 45.1266 19.466C45.1625 19.4373 45.2127 19.4229 45.2773 19.4229C45.3346 19.4229 45.3795 19.4355 45.4117 19.4606C45.444 19.4857 45.4727 19.5305 45.4978 19.5951L46.3801 21.7523H46.2348L47.1332 19.5951C47.1583 19.5305 47.187 19.4857 47.2193 19.4606C47.2516 19.4355 47.2982 19.4229 47.3592 19.4229C47.4165 19.4229 47.4596 19.4373 47.4883 19.466C47.5206 19.4947 47.5385 19.5323 47.5421 19.5789C47.5492 19.622 47.5421 19.6704 47.5206 19.7242L46.5791 21.9029C46.554 21.9747 46.5164 22.0284 46.4662 22.0643C46.4195 22.0966 46.3639 22.1127 46.2994 22.1127ZM49.2356 22.1235C48.9595 22.1235 48.721 22.0697 48.5202 21.9621C48.3229 21.8509 48.1687 21.6949 48.0575 21.4941C47.9499 21.2932 47.8961 21.0529 47.8961 20.7732C47.8961 20.5006 47.9499 20.2639 48.0575 20.0631C48.1651 19.8587 48.3121 19.6991 48.4986 19.5843C48.6887 19.4695 48.9075 19.4122 49.1549 19.4122C49.3307 19.4122 49.4885 19.4427 49.6284 19.5036C49.7682 19.561 49.8866 19.6453 49.9834 19.7565C50.0838 19.8676 50.1591 20.0021 50.2093 20.1599C50.2631 20.3177 50.29 20.4953 50.29 20.6925C50.29 20.7499 50.2739 20.7929 50.2416 20.8216C50.2093 20.8467 50.1627 20.8593 50.1018 20.8593H48.2297V20.5742H49.9995L49.9135 20.6441C49.9135 20.4504 49.8848 20.2872 49.8274 20.1546C49.77 20.0183 49.6857 19.9143 49.5746 19.8425C49.467 19.7708 49.3307 19.7349 49.1657 19.7349C48.9828 19.7349 48.8268 19.778 48.6977 19.8641C48.5722 19.9465 48.4771 20.0631 48.4126 20.2137C48.348 20.3608 48.3157 20.5329 48.3157 20.7302V20.7624C48.3157 21.0924 48.3946 21.3434 48.5524 21.5156C48.7138 21.6877 48.9416 21.7738 49.2356 21.7738C49.3576 21.7738 49.4777 21.7577 49.5961 21.7254C49.718 21.6931 49.8364 21.6393 49.9511 21.564C50.0013 21.5317 50.0462 21.5174 50.0856 21.521C50.1287 21.521 50.1627 21.5335 50.1878 21.5586C50.2129 21.5801 50.2291 21.6088 50.2362 21.6447C50.247 21.677 50.2434 21.7128 50.2255 21.7523C50.2111 21.7917 50.1807 21.8258 50.134 21.8545C50.0157 21.9406 49.8758 22.0069 49.7144 22.0536C49.553 22.1002 49.3934 22.1235 49.2356 22.1235ZM51.7169 22.1235C51.4586 22.1235 51.2614 22.0446 51.1251 21.8868C50.9888 21.729 50.9207 21.503 50.9207 21.209V18.4654C50.9207 18.3936 50.9386 18.3398 50.9745 18.304C51.0103 18.2645 51.0641 18.2448 51.1359 18.2448C51.204 18.2448 51.2578 18.2645 51.2973 18.304C51.3367 18.3398 51.3564 18.3936 51.3564 18.4654V21.1767C51.3564 21.3703 51.3941 21.5156 51.4694 21.6124C51.5483 21.7057 51.6631 21.7523 51.8137 21.7523C51.846 21.7523 51.8747 21.7505 51.8998 21.7469C51.9249 21.7433 51.95 21.7415 51.9751 21.7415C52.0145 21.738 52.0414 21.7469 52.0558 21.7684C52.0737 21.79 52.0827 21.833 52.0827 21.8975C52.0827 21.9621 52.0683 22.0105 52.0396 22.0428C52.0109 22.0751 51.9643 22.0966 51.8998 22.1074C51.8711 22.1109 51.8406 22.1145 51.8083 22.1181C51.776 22.1217 51.7456 22.1235 51.7169 22.1235ZM53.5729 22.1235C53.3183 22.1235 53.0977 22.0679 52.9112 21.9567C52.7247 21.8455 52.5795 21.6895 52.4755 21.4887C52.375 21.2843 52.3248 21.044 52.3248 20.7678C52.3248 20.5598 52.3535 20.3733 52.4109 20.2083C52.4683 20.0398 52.5526 19.8963 52.6638 19.778C52.7749 19.6596 52.9058 19.57 53.0565 19.509C53.2107 19.4444 53.3828 19.4122 53.5729 19.4122C53.8275 19.4122 54.0481 19.4678 54.2346 19.5789C54.4211 19.6901 54.5646 19.8479 54.665 20.0523C54.769 20.2532 54.821 20.4917 54.821 20.7678C54.821 20.9758 54.7923 21.1623 54.7349 21.3273C54.6775 21.4923 54.5932 21.6357 54.4821 21.7577C54.3709 21.876 54.2382 21.9675 54.084 22.032C53.9333 22.093 53.763 22.1235 53.5729 22.1235ZM53.5729 21.7738C53.7343 21.7738 53.876 21.7344 53.9979 21.6555C54.1198 21.5766 54.2131 21.4618 54.2776 21.3112C54.3458 21.1605 54.3799 20.9794 54.3799 20.7678C54.3799 20.4415 54.3063 20.1922 54.1593 20.0201C54.0158 19.8479 53.8204 19.7618 53.5729 19.7618C53.4079 19.7618 53.2645 19.8013 53.1425 19.8802C53.0242 19.9555 52.9309 20.0685 52.8628 20.2191C52.7982 20.3662 52.766 20.5491 52.766 20.7678C52.766 21.0906 52.8395 21.3399 52.9865 21.5156C53.1336 21.6877 53.329 21.7738 53.5729 21.7738ZM55.6907 23.0811C55.6189 23.0811 55.5651 23.0613 55.5293 23.0219C55.4934 22.986 55.4755 22.9322 55.4755 22.8605V19.6435C55.4755 19.5718 55.4934 19.518 55.5293 19.4821C55.5651 19.4427 55.6171 19.4229 55.6853 19.4229C55.757 19.4229 55.8108 19.4427 55.8467 19.4821C55.8861 19.518 55.9059 19.5718 55.9059 19.6435V20.1546L55.8467 20.0792C55.9041 19.8748 56.017 19.7134 56.1856 19.5951C56.3577 19.4731 56.5622 19.4122 56.7989 19.4122C57.032 19.4122 57.2346 19.4678 57.4068 19.5789C57.5825 19.6865 57.717 19.8425 57.8102 20.047C57.9071 20.2478 57.9555 20.4881 57.9555 20.7678C57.9555 21.044 57.9071 21.2843 57.8102 21.4887C57.717 21.6895 57.5843 21.8455 57.4121 21.9567C57.24 22.0679 57.0356 22.1235 56.7989 22.1235C56.5622 22.1235 56.3595 22.0643 56.191 21.946C56.0224 21.824 55.9076 21.6626 55.8467 21.4618H55.9112V22.8605C55.9112 22.9322 55.8915 22.986 55.8521 23.0219C55.8126 23.0613 55.7588 23.0811 55.6907 23.0811ZM56.7074 21.7738C56.8724 21.7738 57.0141 21.7344 57.1324 21.6555C57.2543 21.5766 57.3476 21.4618 57.4121 21.3112C57.4803 21.1605 57.5144 20.9794 57.5144 20.7678C57.5144 20.4415 57.4408 20.1922 57.2938 20.0201C57.1503 19.8479 56.9549 19.7618 56.7074 19.7618C56.546 19.7618 56.4044 19.8013 56.2824 19.8802C56.1605 19.9555 56.0654 20.0685 55.9973 20.2191C55.9328 20.3662 55.9005 20.5491 55.9005 20.7678C55.9005 21.0906 55.974 21.3399 56.121 21.5156C56.2681 21.6877 56.4635 21.7738 56.7074 21.7738ZM59.79 22.1235C59.5138 22.1235 59.2753 22.0697 59.0745 21.9621C58.8772 21.8509 58.723 21.6949 58.6118 21.4941C58.5042 21.2932 58.4504 21.0529 58.4504 20.7732C58.4504 20.5006 58.5042 20.2639 58.6118 20.0631C58.7194 19.8587 58.8665 19.6991 59.053 19.5843C59.243 19.4695 59.4618 19.4122 59.7093 19.4122C59.885 19.4122 60.0428 19.4427 60.1827 19.5036C60.3226 19.561 60.4409 19.6453 60.5377 19.7565C60.6382 19.8676 60.7135 20.0021 60.7637 20.1599C60.8175 20.3177 60.8444 20.4953 60.8444 20.6925C60.8444 20.7499 60.8282 20.7929 60.796 20.8216C60.7637 20.8467 60.7171 20.8593 60.6561 20.8593H58.784V20.5742H60.5539L60.4678 20.6441C60.4678 20.4504 60.4391 20.2872 60.3817 20.1546C60.3243 20.0183 60.2401 19.9143 60.1289 19.8425C60.0213 19.7708 59.885 19.7349 59.72 19.7349C59.5371 19.7349 59.3811 19.778 59.252 19.8641C59.1265 19.9465 59.0314 20.0631 58.9669 20.2137C58.9023 20.3608 58.8701 20.5329 58.8701 20.7302V20.7624C58.8701 21.0924 58.949 21.3434 59.1068 21.5156C59.2682 21.6877 59.4959 21.7738 59.79 21.7738C59.9119 21.7738 60.0321 21.7577 60.1504 21.7254C60.2723 21.6931 60.3907 21.6393 60.5055 21.564C60.5557 21.5317 60.6005 21.5174 60.64 21.521C60.683 21.521 60.7171 21.5335 60.7422 21.5586C60.7673 21.5801 60.7834 21.6088 60.7906 21.6447C60.8013 21.677 60.7978 21.7128 60.7798 21.7523C60.7655 21.7917 60.735 21.8258 60.6884 21.8545C60.57 21.9406 60.4301 22.0069 60.2688 22.0536C60.1074 22.1002 59.9478 22.1235 59.79 22.1235ZM61.6956 22.1127C61.6238 22.1127 61.5683 22.093 61.5288 22.0536C61.4929 22.0141 61.475 21.9585 61.475 21.8868V19.6435C61.475 19.5718 61.4929 19.518 61.5288 19.4821C61.5647 19.4427 61.6167 19.4229 61.6848 19.4229C61.753 19.4229 61.805 19.4427 61.8408 19.4821C61.8803 19.518 61.9 19.5718 61.9 19.6435V20.0792H61.8462C61.9036 19.8676 62.013 19.7045 62.1744 19.5897C62.3357 19.4749 62.5348 19.414 62.7715 19.4068C62.8253 19.4032 62.8683 19.4158 62.9006 19.4444C62.9329 19.4695 62.9508 19.5144 62.9544 19.5789C62.958 19.6399 62.9436 19.6883 62.9114 19.7242C62.8791 19.76 62.8289 19.7816 62.7607 19.7887L62.6747 19.7995C62.4308 19.821 62.2425 19.8999 62.1098 20.0362C61.9807 20.1689 61.9161 20.3518 61.9161 20.5849V21.8868C61.9161 21.9585 61.8964 22.0141 61.857 22.0536C61.8211 22.093 61.7673 22.1127 61.6956 22.1127Z" fill="#243A5A"/>
</g>
<defs>
<clipPath id="clip0_570_81">
<rect width="100" height="26.02" fill="white"/>
</clipPath>
</defs>
</svg>
