<svg width="27" height="27" viewBox="0 0 27 27" fill="none" xmlns="http://www.w3.org/2000/svg">
<path d="M0 13.01C0 6.87702 0 3.81054 1.90603 1.90527C3.81206 0 6.87976 0 13.0152 0C19.1506 0 22.2183 0 24.1244 1.90527C26.0304 3.81054 26.0304 6.87702 26.0304 13.01C26.0304 19.143 26.0304 22.2094 24.1244 24.1148C22.2183 26.02 19.1506 26.02 13.0152 26.02C6.87976 26.02 3.81206 26.02 1.90603 24.1148C0 22.2094 0 19.143 0 13.01Z" fill="#243A5A"/>
<path d="M15.6182 16.913C15.9776 16.913 16.2756 17.2071 16.2042 17.5592C16.078 18.181 15.7715 18.7575 15.316 19.2128C14.7058 19.8228 13.8782 20.1655 13.0152 20.1655C12.1522 20.1655 11.3247 19.8228 10.7144 19.2128C10.2589 18.7575 9.95239 18.181 9.82628 17.5592C9.75482 17.2071 10.0527 16.913 10.4122 16.913H15.6182Z" fill="white"/>
<path d="M16.9863 11.5637C16.6391 11.6566 16.4265 12.0197 16.6026 12.3329C16.7878 12.6625 17.0441 12.9503 17.3559 13.1736C17.8454 13.5242 18.4414 13.6944 19.0423 13.6549C19.6432 13.6156 20.2119 13.3692 20.6515 12.9577C21.091 12.5462 21.3742 11.995 21.4528 11.3982C21.5314 10.8013 21.4006 10.1957 21.0826 9.68449C20.7646 9.17333 20.279 8.78817 19.7088 8.59464C19.1385 8.40112 18.5188 8.41127 17.9552 8.62333C17.5962 8.75837 17.2742 8.96998 17.0099 9.24046C16.7587 9.49747 16.8701 9.90319 17.1814 10.0828L17.5115 10.2733C18.0135 10.5631 17.9146 11.315 17.3545 11.465L16.9863 11.5637Z" fill="white"/>
<path d="M9.04413 11.5637C9.39131 11.6566 9.60391 12.0197 9.42788 12.3329C9.24261 12.6625 8.98634 12.9503 8.67462 13.1736C8.18512 13.5242 7.58909 13.6944 6.98818 13.6549C6.38722 13.6156 5.81853 13.3692 5.37898 12.9577C4.93944 12.5462 4.65624 11.995 4.57763 11.3982C4.49903 10.8013 4.62988 10.1957 4.9479 9.68449C5.26591 9.17333 5.75141 8.78817 6.32168 8.59464C6.89193 8.40112 7.51172 8.41127 8.07534 8.62333C8.43423 8.75837 8.7563 8.96998 9.02063 9.24046C9.27176 9.49747 9.16035 9.90319 8.84909 10.0828L8.51896 10.2733C8.0169 10.5631 8.11595 11.315 8.67593 11.465L9.04413 11.5637Z" fill="white"/>
</svg>
